<svg xmlns="http://www.w3.org/2000/svg" xmlns:xlink="http://www.w3.org/1999/xlink" width="500" zoomAndPan="magnify" viewBox="0 0 375 374.999991" height="500" preserveAspectRatio="xMidYMid meet" version="1.0"><defs><clipPath id="1a7ced61b1"><path d="M 131 174 L 262.5 174 L 262.5 200 L 131 200 Z M 131 174 " clip-rule="nonzero"/></clipPath><clipPath id="5f7e7ca36c"><path d="M 112.5 151 L 238 151 L 238 195 L 112.5 195 Z M 112.5 151 " clip-rule="nonzero"/></clipPath></defs><g clip-path="url(#1a7ced61b1)"><path fill="#e10505" d="M 143.683594 185.742188 C 183.253906 168.117188 205.390625 173.363281 221.644531 186.316406 C 237.292969 183.691406 249.664062 188.554688 262.5 199.492188 C 249.058594 202.453125 243.707031 179.179688 207.324219 190.871094 C 210.136719 189.011719 213.171875 187.832031 216.398438 187.335938 C 202.460938 176.144531 181.53125 172.152344 143.683594 185.742188 Z M 151.050781 188.597656 C 144.066406 186.019531 134.871094 190.191406 131.875 186.433594 C 132.980469 189.246094 134.117188 192.164062 134.308594 195.277344 C 137.449219 191.632812 142.3125 188.894531 151.050781 188.597656 Z M 168.175781 180.539062 C 153.789062 185.136719 175.546875 184.902344 201.664062 186.773438 C 167.453125 187.609375 145.613281 185.667969 168.175781 180.539062 Z M 168.175781 180.539062 " fill-opacity="1" fill-rule="evenodd"/></g><path fill="#e10505" d="M 189.625 142.496094 C 200.144531 141.925781 210.125 142.953125 219.085938 145.269531 L 211.113281 153.242188 C 202.109375 150.355469 191.523438 149.101562 180.089844 149.898438 L 182.179688 143.175781 C 184.65625 142.871094 187.117188 142.648438 189.625 142.496094 Z M 177.933594 150.089844 C 176.871094 150.207031 175.769531 150.3125 174.707031 150.429688 C 169.195312 151.109375 163.84375 152.253906 158.757812 153.730469 L 159.332031 148.75 C 165.746094 146.320312 172.699219 144.535156 180.027344 143.476562 Z M 156.667969 154.378906 C 146.910156 157.414062 138.097656 161.863281 130.773438 167.140625 C 137.34375 160.003906 146.453125 153.921875 157.199219 149.601562 Z M 221.335938 145.875 C 232.539062 149.101562 242 154.347656 248.75 161.023438 L 235.042969 169.378906 C 230.339844 162.703125 222.78125 157.382812 213.246094 153.964844 Z M 250.195312 162.511719 C 256.382812 169.230469 259.953125 177.324219 259.953125 186.132812 C 259.953125 188.109375 259.761719 190.125 259.421875 192.058594 C 253.304688 187.652344 247.042969 184.5 240.203125 182.90625 C 239.746094 178.648438 238.347656 174.667969 236.136719 171.058594 Z M 250.195312 162.511719 " fill-opacity="1" fill-rule="evenodd"/><g clip-path="url(#5f7e7ca36c)"><path fill="#e10505" d="M 174.441406 152.285156 C 206.378906 148.21875 232.773438 160.941406 237.019531 181.261719 C 230.488281 163.03125 204.890625 151.988281 174.324219 155.824219 C 144.96875 159.464844 120.25 175.644531 112.5 194.480469 C 118.351562 174.167969 143.832031 156.203125 174.441406 152.285156 Z M 174.441406 152.285156 " fill-opacity="1" fill-rule="evenodd"/></g><path stroke-linecap="butt" transform="matrix(0.75, 0, 0, 0.75, 48.701303, 207.656238)" fill="none" stroke-linejoin="miter" d="M 32.50764 6.442725 L 26.590973 22.000018 L 19.820139 22.000018 L 17.986806 6.442725 L 17.465972 11.625017 L 16.117014 22.000018 L 9.549305 22.000018 L 13.075347 -4.963525 L 22.856598 -4.963525 L 24.689931 10.588559 L 30.606598 -4.963525 L 40.387849 -4.963525 L 36.861807 22.000018 L 30.294098 22.000018 L 31.637848 11.625017 Z M 56.179516 -5.4479 C 59.820142 -5.4479 62.424309 -4.401025 63.986809 -2.317692 C 65.554517 -0.234358 66.033684 3.14585 65.413892 7.828142 L 65.236809 9.135434 C 64.820142 12.250017 64.132642 14.786476 63.174309 16.750018 C 62.221184 18.708351 60.929517 20.156268 59.299308 21.08856 C 57.679517 22.015643 55.663891 22.479185 53.242016 22.479185 C 49.622224 22.479185 47.018058 21.43231 45.424307 19.343768 C 43.835766 17.244809 43.351391 13.864601 43.976391 9.203142 L 44.153474 7.89585 C 44.564932 4.786475 45.252432 2.244808 46.221182 0.276058 C 47.189933 -1.6979 48.486808 -3.145817 50.111808 -4.062484 C 51.736808 -4.984359 53.757641 -5.4479 56.179516 -5.4479 Z M 53.408683 16.817726 L 53.788891 16.817726 C 54.830558 16.817726 55.663891 16.505226 56.278475 15.880226 C 56.903475 15.255226 57.38785 14.369809 57.7316 13.223976 C 58.080558 12.067726 58.361808 10.708351 58.570142 9.135434 L 58.736808 7.828142 C 58.945142 6.260434 59.028475 4.906267 58.9816 3.77085 C 58.934725 2.625017 58.684725 1.750017 58.221183 1.14585 C 57.757642 0.531267 57.007642 0.223975 55.965975 0.223975 L 55.585766 0.223975 C 54.554516 0.223975 53.721183 0.536475 53.096183 1.161475 C 52.4816 1.781267 51.997225 2.666683 51.648266 3.822933 C 51.304516 4.968767 51.028474 6.328142 50.820141 7.89585 L 50.653474 9.203142 C 50.445141 10.776059 50.361808 12.130226 50.408683 13.270851 C 50.450349 14.416684 50.705558 15.291684 51.163891 15.906268 C 51.627433 16.515643 52.377433 16.817726 53.408683 16.817726 Z M 83.210768 0.70835 L 80.408685 22.000018 L 73.840976 22.000018 L 76.637851 0.70835 L 70.596184 0.70835 L 71.320142 -4.963525 L 89.981602 -4.963525 L 89.252435 0.70835 Z M 104.570145 -5.4479 C 108.21077 -5.4479 110.809728 -4.401025 112.377437 -2.317692 C 113.945145 -0.234358 114.419104 3.14585 113.799312 7.828142 L 113.622229 9.135434 C 113.205562 12.250017 112.52327 14.786476 111.564937 16.750018 C 110.606603 18.708351 109.314937 20.156268 107.689937 21.08856 C 106.070145 22.015643 104.049311 22.479185 101.632644 22.479185 C 98.012853 22.479185 95.408686 21.43231 93.814936 19.343768 C 92.221186 17.244809 91.742019 13.864601 92.361811 9.203142 L 92.538894 7.89585 C 92.950352 4.786475 93.643061 2.244808 94.606602 0.276058 C 95.575352 -1.6979 96.872227 -3.145817 98.502436 -4.062484 C 100.127436 -4.984359 102.14827 -5.4479 104.570145 -5.4479 Z M 101.799311 16.817726 L 102.17952 16.817726 C 103.221186 16.817726 104.049311 16.505226 104.669103 15.880226 C 105.294103 15.255226 105.778478 14.369809 106.122228 13.223976 C 106.471186 12.067726 106.747228 10.708351 106.955561 9.135434 L 107.127436 7.828142 C 107.33577 6.260434 107.413895 4.906267 107.372228 3.77085 C 107.325353 2.625017 107.070145 1.750017 106.611811 1.14585 C 106.14827 0.531267 105.39827 0.223975 104.356603 0.223975 L 103.976395 0.223975 C 102.939936 0.223975 102.111811 0.536475 101.486811 1.161475 C 100.867019 1.781267 100.382644 2.666683 100.033686 3.822933 C 99.695144 4.968767 99.419103 6.328142 99.210769 7.89585 L 99.038894 9.203142 C 98.830561 10.776059 98.752436 12.130226 98.794103 13.270851 C 98.840978 14.416684 99.090978 15.291684 99.554519 15.906268 C 100.018061 16.515643 100.762853 16.817726 101.799311 16.817726 Z M 125.893063 7.067725 L 128.898271 7.067725 C 129.34098 7.067725 129.788896 6.9896 130.252438 6.822934 C 130.710771 6.661475 131.117021 6.369809 131.476396 5.947934 C 131.835771 5.52085 132.049313 4.890642 132.117021 4.057309 L 132.148271 3.6771 C 132.236813 2.828142 132.169105 2.187517 131.939938 1.760433 C 131.710771 1.33335 131.40348 1.0521 131.007646 0.916683 C 130.617021 0.776058 130.200355 0.70835 129.762855 0.70835 L 126.757646 0.70835 Z M 125.169104 12.734392 L 123.955563 22.000018 L 117.387854 22.000018 L 120.913896 -4.963525 L 130.21598 -4.963525 C 131.37223 -4.963525 132.502438 -4.874984 133.617022 -4.687484 C 134.736813 -4.499984 135.731605 -4.119775 136.606605 -3.546859 C 137.481605 -2.973942 138.137855 -2.124984 138.564939 -1.005192 C 138.992022 0.1146 139.080564 1.604183 138.825355 3.473975 L 138.71598 4.234392 C 138.419105 6.421892 137.794105 8.104184 136.851397 9.281267 C 135.90348 10.458351 134.799313 11.307309 133.533688 11.838559 L 136.40348 22.000018 L 129.314938 22.000018 L 127.002438 12.734392 Z M 174.387858 6.442725 L 168.471191 22.000018 L 161.705565 22.000018 L 159.872232 6.442725 L 159.351398 11.625017 L 157.997232 22.000018 L 151.434731 22.000018 L 154.960773 -4.963525 L 164.742024 -4.963525 L 166.575357 10.588559 L 172.492024 -4.963525 L 182.273275 -4.963525 L 178.747233 22.000018 L 172.179524 22.000018 L 173.523274 11.625017 Z M 198.064942 -5.4479 C 201.705568 -5.4479 204.304526 -4.401025 205.872235 -2.317692 C 207.439943 -0.234358 207.913901 3.14585 207.29411 7.828142 L 207.117026 9.135434 C 206.70036 12.250017 206.018068 14.786476 205.059735 16.750018 C 204.101401 18.708351 202.809734 20.156268 201.184734 21.08856 C 199.564943 22.015643 197.544109 22.479185 195.127442 22.479185 C 191.50765 22.479185 188.903484 21.43231 187.309733 19.343768 C 185.715983 17.244809 185.236817 13.864601 185.856608 9.203142 L 186.033692 7.89585 C 186.44515 4.786475 187.137858 2.244808 188.106608 0.276058 C 189.07015 -1.6979 190.367025 -3.145817 191.997234 -4.062484 C 193.622234 -4.984359 195.643067 -5.4479 198.064942 -5.4479 Z M 195.294109 16.817726 L 195.674317 16.817726 C 196.715984 16.817726 197.544109 16.505226 198.163901 15.880226 C 198.788901 15.255226 199.273276 14.369809 199.617026 13.223976 C 199.965984 12.067726 200.242026 10.708351 200.450359 9.135434 L 200.622234 7.828142 C 200.830568 6.260434 200.908693 4.906267 200.867026 3.77085 C 200.820151 2.625017 200.564943 1.750017 200.106609 1.14585 C 199.643068 0.531267 198.893068 0.223975 197.851401 0.223975 L 197.471192 0.223975 C 196.434734 0.223975 195.606609 0.536475 194.981609 1.161475 C 194.361817 1.781267 193.877442 2.666683 193.528484 3.822933 C 193.189942 4.968767 192.9139 6.328142 192.705567 7.89585 L 192.533692 9.203142 C 192.325359 10.776059 192.247234 12.130226 192.2889 13.270851 C 192.335775 14.416684 192.590984 15.291684 193.049317 15.906268 C 193.512859 16.515643 194.257651 16.817726 195.294109 16.817726 Z M 233.012861 7.828142 L 232.835778 9.135434 C 232.419111 12.250017 231.721195 14.744809 230.742028 16.625018 C 229.762861 18.505226 228.382653 19.86981 226.606611 20.723976 C 224.835778 21.572935 222.533694 22.000018 219.700361 22.000018 L 210.882652 22.000018 L 214.408694 -4.963525 L 222.877444 -4.963525 C 225.710778 -4.963525 227.945153 -4.546859 229.570153 -3.718734 C 231.195153 -2.890609 232.278486 -1.536442 232.820153 0.343767 C 233.356611 2.223975 233.42432 4.718767 233.012861 7.828142 Z M 218.174319 16.328143 L 220.080569 16.328143 C 221.580569 16.328143 222.731611 16.052101 223.533694 15.500018 C 224.346194 14.947934 224.934736 14.140643 225.299319 13.072934 C 225.669111 11.994809 225.960778 10.682309 226.169111 9.135434 L 226.335778 7.828142 C 226.544111 6.260434 226.570153 4.953142 226.419111 3.906267 C 226.273278 2.854183 225.846194 2.057308 225.127444 1.515642 C 224.413903 0.973975 223.304527 0.70835 221.804527 0.70835 L 220.252444 0.70835 Z M 246.179529 11.145851 C 243.29932 10.750017 241.23682 9.937517 240.002445 8.70835 C 238.76807 7.473975 238.288903 5.635434 238.564945 3.197933 L 238.64307 2.572933 C 238.89307 0.171892 239.908695 -1.7604 241.679529 -3.234359 C 243.45557 -4.708317 246.028487 -5.4479 249.393071 -5.4479 C 252.757654 -5.4479 255.158696 -4.661442 256.601405 -3.093734 C 258.044113 -1.526025 258.564946 0.796892 258.169113 3.885434 L 258.070155 4.713559 L 251.497238 4.713559 C 251.705571 3.197933 251.611821 2.067725 251.215988 1.328142 C 250.830571 0.593767 250.023279 0.223975 248.804529 0.223975 L 248.455571 0.223975 C 247.512862 0.223975 246.768071 0.463558 246.221196 0.932308 C 245.679529 1.401058 245.377446 1.968767 245.309737 2.640642 L 245.273279 2.984392 C 245.231612 3.468767 245.294112 3.89585 245.460779 4.265642 C 245.632654 4.635434 246.018071 4.947934 246.617029 5.213559 C 247.221196 5.479184 248.106612 5.692725 249.283696 5.854184 C 252.163904 6.250017 254.247238 7.072934 255.538905 8.328142 C 256.830571 9.583351 257.330571 11.500017 257.033696 14.083351 L 256.965988 14.708351 C 256.684738 17.239601 255.622238 19.171893 253.773279 20.500018 C 251.934738 21.817726 249.424321 22.479185 246.247237 22.479185 C 242.971195 22.479185 240.528487 21.723976 238.913903 20.203143 C 237.304528 18.682309 236.689945 16.354184 237.08057 13.223976 L 237.153487 12.666684 L 243.721195 12.666684 C 243.538904 14.140643 243.684737 15.197934 244.169112 15.848976 C 244.653487 16.494809 245.460779 16.817726 246.590987 16.817726 L 246.939946 16.817726 C 248.064946 16.817726 248.887862 16.578143 249.419113 16.093768 C 249.955571 15.609393 250.252446 15.041684 250.320154 14.395851 L 250.356613 14.052101 C 250.403488 13.588559 250.325363 13.177101 250.127446 12.807309 C 249.934738 12.437517 249.533696 12.109392 248.919112 11.822934 C 248.314946 11.536476 247.398279 11.307309 246.179529 11.145851 Z M 271.059739 17.510434 L 283.226406 0.562517 L 278.111823 0.70835 L 273.617031 0.70835 L 274.346197 -4.963525 L 291.976407 -4.963525 L 291.387865 -0.468733 L 279.215989 16.473976 L 284.335781 16.328143 L 289.518073 16.328143 L 288.794115 22.000018 L 270.471197 22.000018 Z M 307.804533 -5.4479 C 311.445158 -5.4479 314.044117 -4.401025 315.611825 -2.317692 C 317.179534 -0.234358 317.653492 3.14585 317.038909 7.828142 L 316.861825 9.135434 C 316.445159 12.250017 315.757659 14.786476 314.799325 16.750018 C 313.840992 18.708351 312.554533 20.156268 310.924325 21.08856 C 309.304533 22.015643 307.2837 22.479185 304.867033 22.479185 C 301.247241 22.479185 298.643074 21.43231 297.049324 19.343768 C 295.460782 17.244809 294.976407 13.864601 295.601407 9.203142 L 295.778491 7.89585 C 296.184741 4.786475 296.877449 2.244808 297.846199 0.276058 C 298.809741 -1.6979 300.106616 -3.145817 301.736824 -4.062484 C 303.361824 -4.984359 305.382658 -5.4479 307.804533 -5.4479 Z M 305.033699 16.817726 L 305.413908 16.817726 C 306.455575 16.817726 307.2837 16.505226 307.903491 15.880226 C 308.528491 15.255226 309.012866 14.369809 309.356616 13.223976 C 309.705575 12.067726 309.981616 10.708351 310.18995 9.135434 L 310.361825 7.828142 C 310.570158 6.260434 310.648283 4.906267 310.606617 3.77085 C 310.559742 2.625017 310.309742 1.750017 309.8462 1.14585 C 309.382658 0.531267 308.632658 0.223975 307.590991 0.223975 L 307.210783 0.223975 C 306.179533 0.223975 305.3462 0.536475 304.721199 1.161475 C 304.101408 1.781267 303.622241 2.666683 303.273283 3.822933 C 302.929533 4.968767 302.653491 6.328142 302.445158 7.89585 L 302.273283 9.203142 C 302.064949 10.776059 301.986824 12.130226 302.028491 13.270851 C 302.075366 14.416684 302.330574 15.291684 302.788908 15.906268 C 303.252449 16.515643 303.997241 16.817726 305.033699 16.817726 Z M 344.549327 -4.963525 L 341.023285 22.000018 L 334.111826 22.000018 L 328.606618 7.135434 L 328.090993 12.317726 L 326.840993 22.000018 L 320.622242 22.000018 L 324.148284 -4.963525 L 331.064951 -4.963525 L 336.559743 9.895851 L 337.049327 4.713559 L 338.32016 -4.963525 Z M 350.590994 -4.963525 L 367.528495 -4.963525 L 366.804537 0.70835 L 356.434745 0.70835 L 355.809744 5.406267 L 364.45037 5.406267 L 363.689953 11.078142 L 355.049328 11.078142 L 354.356619 16.328143 L 364.726412 16.328143 L 364.002453 22.000018 L 347.064952 22.000018 Z M 350.590994 -4.963525 " stroke="#ff3131" stroke-width="0.993974" stroke-opacity="1" stroke-miterlimit="4"/></svg>